<svg width="273" height="273" viewBox="0 0 273 273" fill="none" xmlns="http://www.w3.org/2000/svg">
<path d="M176.45 8.89L136.1 0L96.4401 7.51999V21.63L115.83 26.28C116.98 40.44 121.74 100.02 121.74 111.45C121.74 124.44 128.58 177.78 127.9 191.46C127.22 205.14 128.58 232.49 130.63 239.33C132.68 246.17 132.68 272.84 136.78 272.84C137.46 272.84 138.4 272.91 138.83 272.84C142.28 272.28 143.62 232.49 144.3 225.66C144.98 218.82 143.62 175.74 145.67 168.9C147.72 162.06 153.19 109.41 151.83 93.68C150.53 78.8 157.19 35.81 157.91 26L176.45 21.63V8.87999V8.89Z" fill="black"/>
<path d="M140.28 8.04999C154.84 8.35999 147.28 11.45 152.31 13.16C162.37 16.59 172.73 19.42 160.66 17.8C142.56 15.38 135.43 7.94 140.28 8.04V8.04999ZM146.3 112.84C146.48 104.35 143.75 138.25 143.51 149.57C143.27 160.88 145.07 138.28 146.57 131.24C148.06 124.2 146.24 115.67 146.3 112.84ZM121.17 39.72C120.22 31.29 122.02 65.25 123.28 76.49C124.54 87.74 123.33 65.1 123.88 57.92C124.43 50.74 121.49 42.53 121.17 39.72Z" fill="white"/>
<path d="M272.85 77.97C272.29 75.52 232.5 74.57 225.67 74.09C218.84 73.61 175.75 74.58 168.91 73.12C162.07 71.66 109.42 67.78 93.69 68.75C78.81 69.67 35.82 64.95 26.01 64.44L21.64 51.29H8.89L0 79.91L7.52 108.05H21.63L26.28 94.29C40.44 93.48 100.02 90.1 111.45 90.1C124.44 90.1 177.78 85.25 191.46 85.73C205.14 86.22 232.49 85.25 239.33 83.79C246.17 82.33 272.84 82.33 272.84 79.42C272.84 78.93 272.91 78.27 272.84 77.96L272.85 77.97Z" fill="black"/>
<path d="M8.06008 76.94C8.37008 66.61 11.4601 71.98 13.1701 68.41C16.6001 61.27 19.4301 53.92 17.8101 62.49C15.3901 75.33 7.95007 80.39 8.05007 76.94H8.06008Z" fill="white"/>
<path d="M112.84 72.67C104.35 72.54 138.25 74.48 149.57 74.65C160.88 74.82 138.28 73.54 131.24 72.48C124.2 71.42 115.67 72.71 112.84 72.67Z" fill="white"/>
<path d="M39.73 90.5C31.3 91.17 65.26 89.9 76.5 89C87.75 88.1 65.11 88.96 57.93 88.58C50.75 88.19 42.54 90.28 39.73 90.5Z" fill="white"/>
</svg>
