<?xml version="1.0" encoding="UTF-8"?>
<svg id="Layer_1" xmlns="http://www.w3.org/2000/svg" version="1.1" viewBox="0 0 1200 627.15">
  <!-- Generator: Adobe Illustrator 29.4.0, SVG Export Plug-In . SVG Version: 2.1.0 Build 152)  -->
  <defs>
    <style>
      .st0 {
        fill: #fff;
      }
    </style>
  </defs>
  <g>
    <path d="M518.66,170.94v3.04c5.46,6.07,9.11,15.18,9.11,37.34v120.51c0,11.23-4.25,15.18-16.7,15.18h-4.08c-7.62,0-13.8-6.18-13.8-13.8v-4.29c0-22.16,3.95-31.27,9.41-37.34v-3.04h-64.05v3.04c5.46,6.07,9.11,15.18,9.11,37.34v21.93c0,17.27,13.44,31.4,30.43,32.51.07,0,.15.01.22.02.16,0,.31.02.47.02.17,0,.35.03.52.03h.48c.14,0,.28.01.43.01h12.98s0-.01,0-.01h40.03c28.53,0,40.07-11.84,40.07-40.07v-132.04c0-22.16,3.95-31.27,9.41-37.34v-3.04h-64.05Z"/>
    <path d="M608.97,380.39c4.55-6.07,7.29-15.18,3.64-37.34l-21.86-131.74c-3.64-22.16-8.5-31.27-14.87-37.34v-3.04h63.74v3.04c-4.55,6.07-6.68,15.18-3.64,37.34l15.48,115.05,16.39-115.05c3.04-22.16,1.82-31.27-2.73-37.34v-3.04h65.57v3.04c-4.55,6.07-5.77,15.18-2.73,37.34l16.09,115.05,15.78-115.05c3.04-22.16.91-31.27-3.64-37.34v-3.04h59.5v3.04c-6.37,6.07-11.23,15.18-14.87,37.34l-21.86,131.74c-3.64,22.16-.91,31.27,3.64,37.34v3.04h-74.98v-3.04c4.55-6.07,5.77-15.18,2.13-37.34l-13.36-82.26-13.05,82.26c-3.64,22.16-2.43,31.27,2.12,37.34v3.04h-76.49v-3.04Z"/>
    <path d="M856.96,170.94h73.16v57.98h-3.04c-10.02-14.57-25.8-21.55-42.8-21.55h-3.64c-13.05,0-18.21,4.86-18.21,18.21v103.21c0,13.36,5.16,18.21,18.21,18.21h3.64c17,0,32.78-6.98,42.8-21.55h3.04v57.98h-73.16c-28.53,0-40.07-11.84-40.07-40.07v-132.35c0-28.23,11.53-40.07,40.07-40.07Z"/>
  </g>
  <g>
    <g>
      <path d="M407.49,173.24l-40.35-8.89-39.66,7.52v14.11h0s0,0,0,0l19.39,4.65c1.15,14.16,5.91,73.74,5.91,85.17,0,12.99,6.84,66.33,6.16,80.01-.68,13.68.68,41.03,2.73,47.87,2.05,6.84,2.05,33.51,6.15,33.51.68,0,1.62.07,2.05,0,3.45-.56,4.79-40.35,5.47-47.18.68-6.84-.68-49.92,1.37-56.76s7.52-59.49,6.16-75.22c-1.3-14.88,5.36-57.87,6.08-67.68l18.54-4.37h-.01s.01,0,.01,0v-12.75Z"/>
      <path class="st0" d="M371.32,172.4c14.56.31,7,3.4,12.03,5.11,10.06,3.43,20.42,6.26,8.35,4.64-18.1-2.42-25.23-9.86-20.38-9.76ZM377.34,277.19c.18-8.49-2.55,25.41-2.79,36.73-.24,11.31,1.56-11.29,3.06-18.33,1.49-7.04-.33-15.57-.27-18.4ZM352.21,204.07c-.95-8.43.85,25.53,2.11,36.77,1.26,11.25.05-11.39.6-18.57.55-7.18-2.39-15.39-2.71-18.2Z"/>
    </g>
    <g>
      <path d="M503.89,242.32c-.56-2.45-40.35-3.4-47.18-3.88s-49.92.49-56.76-.97c-6.84-1.46-59.49-5.34-75.22-4.37-14.88.92-57.87-3.8-67.68-4.31l-4.37-13.15h0s0,0,0,0h-12.75l-8.89,28.62,7.52,28.14h14.11,0s0,0,0,0l4.65-13.76c14.16-.81,73.74-4.19,85.17-4.19,12.99,0,66.33-4.85,80.01-4.37,13.68.49,41.03-.48,47.87-1.94,6.84-1.46,33.51-1.46,33.51-4.37,0-.49.07-1.15,0-1.46Z"/>
      <path class="st0" d="M239.1,241.29c.31-10.33,3.4-4.96,5.11-8.53,3.43-7.14,6.26-14.49,4.64-5.92-2.42,12.84-9.86,17.9-9.76,14.45Z"/>
      <path class="st0" d="M343.88,237.02c-8.49-.13,25.41,1.81,36.73,1.98,11.31.17-11.29-1.11-18.33-2.17-7.04-1.06-15.57.23-18.4.19Z"/>
      <path class="st0" d="M270.77,254.85c-8.43.67,25.53-.6,36.77-1.5,11.25-.9-11.39-.04-18.57-.42-7.18-.39-15.39,1.7-18.2,1.92Z"/>
    </g>
  </g>
  <g>
    <path d="M474.39,401.9c0,.17,0,.45-.03.82-.02.38-.03.65-.03.82,0,1.17.05,2.41.16,3.71.1,1.31.27,2.75.5,4.32l-2.59.44c-.28-2.6-1.39-4.62-3.32-6.06-1.94-1.44-4.49-2.16-7.66-2.16-4.05,0-7.18,1.26-9.4,3.78-2.22,2.52-3.34,6.08-3.34,10.68,0,4.97,1.26,8.93,3.78,11.88,2.52,2.95,5.89,4.42,10.11,4.42,2.65,0,4.91-.6,6.79-1.8,1.87-1.2,3.4-3.03,4.56-5.49l2.3,1.07c-.7,1.38-1.31,2.72-1.83,4.04-.52,1.32-.97,2.62-1.33,3.91-2.11.85-4.17,1.5-6.19,1.95-2.01.45-3.95.67-5.82.67-6.07,0-10.99-1.8-14.75-5.39-3.77-3.59-5.65-8.28-5.65-14.07s1.97-10.43,5.92-14.14c3.95-3.71,8.96-5.56,15.03-5.56,2.18,0,4.32.17,6.42.52,2.1.35,4.22.89,6.37,1.62Z"/>
    <path d="M502.78,399.65c2.77,0,5.25.38,7.43,1.14,2.18.76,4.19,1.93,6.02,3.52,2.13,1.85,3.77,4.05,4.92,6.6,1.15,2.55,1.73,5.26,1.73,8.12,0,5.69-1.93,10.42-5.78,14.2-3.85,3.78-8.68,5.68-14.47,5.68-3.02,0-5.75-.49-8.19-1.48-2.44-.99-4.6-2.45-6.49-4.41-1.74-1.83-3.07-3.92-3.99-6.26-.92-2.34-1.37-4.83-1.37-7.47,0-2.91.57-5.62,1.71-8.12,1.14-2.5,2.8-4.69,4.98-6.55,1.81-1.57,3.91-2.79,6.28-3.66,2.37-.87,4.78-1.31,7.22-1.31ZM514.79,419.95c0-4.94-1.14-8.9-3.43-11.9-2.28-3-5.28-4.5-9-4.5s-6.4,1.33-8.51,4c-2.12,2.67-3.18,6.28-3.18,10.83,0,4.97,1.16,8.96,3.47,11.98s5.31,4.52,9.01,4.52,6.41-1.33,8.5-4c2.09-2.67,3.14-6.31,3.14-10.93Z"/>
    <path d="M529.08,400.67c.66.02,1.7.07,3.13.14,1.42.08,2.44.12,3.05.12.54,0,1.49-.04,2.84-.12,1.35-.08,2.35-.13,2.99-.14.24.65.6,1.33,1.07,2.05.47.72,1.09,1.54,1.86,2.45l19.23,22.68c-.02-2.27-.04-5.29-.08-9.08-.07-8.32-.2-12.86-.39-13.63-.24-.84-.63-1.41-1.15-1.71-.52-.3-1.39-.46-2.59-.46h-.86v-2.3c1.9.09,3.35.15,4.34.2.99.04,1.81.07,2.46.07.77,0,1.69-.02,2.77-.07,1.08-.04,2.44-.11,4.08-.2v2.3h-.47c-1.12,0-1.94.13-2.46.38-.52.25-.9.69-1.13,1.32-.28.84-.48,4.77-.6,11.8v.42l-.1,5.68c-.04,2.18-.06,4.22-.08,6.13-.02,1.91-.03,3.51-.03,4.8,0,.85.03,1.68.09,2.49.06.8.15,1.58.27,2.33h-5.13c-.21-.44-.51-.93-.92-1.49-.4-.56-1.17-1.51-2.3-2.85l-21.11-24.69c0,8.25.04,14.16.13,17.75.09,3.58.22,5.7.39,6.34.24.84.63,1.42,1.16,1.74.53.32,1.4.48,2.6.48h.81v2.35c-1.99-.1-3.49-.17-4.51-.21s-1.86-.05-2.52-.05c-.56,0-1.32.02-2.29.05-.97.03-2.51.1-4.62.21v-2.35c.14.02.28.03.43.04s.36.01.64.01c2.49,0,3.77-3.43,3.82-10.28.02-1.52.03-2.69.03-3.53l.08-5.57c0-1.13.02-2.76.05-4.88.03-2.12.05-3.47.05-4.07,0-1.69-.3-2.85-.89-3.47-.59-.62-1.66-.93-3.19-.93-.1,0-.27,0-.48.03-.22.02-.38.03-.48.03v-2.3Z"/>
    <path d="M603.22,401.74v.58c0,1.27.07,2.58.22,3.91.15,1.33.37,2.71.67,4.12l-2.72.45c-.3-2.27-1.14-3.98-2.52-5.13-1.39-1.15-3.29-1.73-5.72-1.73-2.25,0-4.01.44-5.28,1.33-1.27.89-1.91,2.12-1.91,3.69,0,1.05.26,1.95.78,2.71s1.33,1.43,2.43,2c.85.45,2.33,1.03,4.43,1.73,2.1.7,3.66,1.25,4.67,1.65,2.28.94,4,2.17,5.14,3.69,1.14,1.52,1.71,3.32,1.71,5.41,0,3.8-1.46,6.84-4.37,9.1-2.91,2.27-6.86,3.4-11.85,3.4-1.64,0-3.3-.16-4.97-.48-1.67-.32-3.3-.79-4.89-1.4,0-.19,0-.45.03-.77.02-.32.03-.56.03-.72,0-1.34-.08-2.71-.25-4.11-.17-1.4-.42-2.83-.77-4.32l2.85-.71c.66,3.21,1.73,5.45,3.2,6.72,1.47,1.27,3.67,1.91,6.58,1.91,2.35,0,4.21-.52,5.57-1.57,1.36-1.05,2.04-2.45,2.04-4.21,0-2.51-2.4-4.61-7.19-6.3-1.06-.37-1.87-.65-2.43-.86-3.31-1.24-5.69-2.68-7.13-4.32-1.44-1.64-2.16-3.69-2.16-6.15,0-3.38,1.31-6.11,3.92-8.19,2.62-2.08,6.08-3.11,10.38-3.11,1.5,0,3.02.14,4.56.41,1.54.27,3.19.69,4.93,1.27Z"/>
    <path d="M620.02,435.59h.97c1.17,0,2.02-.13,2.56-.38.54-.25.94-.7,1.2-1.35.17-.49.3-1.67.37-3.56s.1-5.37.1-10.46v-14.96h-4.5c-2.74,0-4.61.38-5.62,1.15-1.01.77-1.71,2.24-2.09,4.42l-2.46-.52c.4-1.73.71-3.38.93-4.96.22-1.58.35-3.13.41-4.67.66.23,1.6.39,2.8.48,1.2.1,3.23.14,6.09.14h15.69c3.21,0,5.44-.05,6.71-.14,1.26-.1,2.19-.27,2.79-.51v.81c0,1.36.06,2.77.17,4.22.11,1.46.28,2.99.51,4.62l-2.36.37c-.3-2.13-.9-3.56-1.8-4.3-.91-.74-2.69-1.11-5.36-1.11h-4.6c-.05,2.79-.09,5.54-.1,8.24-.02,2.7-.03,5.85-.03,9.44v4.89c0,2.3.05,3.92.16,4.84.1.92.27,1.61.5,2.07.26.44.67.75,1.23.94.56.19,1.34.29,2.36.29h.91v2.35c-.44-.02-1.08-.04-1.94-.08-3.42-.16-5.75-.24-7.01-.24-.91,0-2.07.03-3.49.08s-3.12.13-5.09.24v-2.35Z"/>
    <path d="M652.08,435.64c.14.02.27.03.41.04.13,0,.34.01.61.01,1.43,0,2.39-.47,2.89-1.41.5-.94.75-3.43.75-7.48v-4.71l.1-5.86c.02-1.24.03-2.47.04-3.69s.01-2.69.01-4.39c0-2.2-.27-3.62-.8-4.26-.53-.64-1.53-.97-3-.97h-.55v-2.3c1.87.09,3.41.15,4.63.2,1.22.04,2.28.07,3.19.07,1.29,0,2.89-.04,4.81-.13,1.92-.09,3.21-.13,3.87-.13,4.32,0,7.73.9,10.23,2.69,2.49,1.8,3.74,4.24,3.74,7.32,0,2.06-.62,3.87-1.87,5.44-1.25,1.57-3.12,2.91-5.61,4.03l5.13,7.22c2.44,3.8,4.22,6.19,5.35,7.17s2.32,1.46,3.6,1.46c.07,0,.17,0,.3-.03.13-.02.23-.03.3-.03v2.2c-1.06.09-1.99.15-2.77.2s-1.47.07-2.07.07c-2.13,0-3.79-.24-5-.71-1.2-.47-2.29-1.28-3.24-2.43-.45-.54-1.57-2.28-3.35-5.22-1.78-2.94-3.34-5.45-4.68-7.55-1.08.03-2.04.06-2.88.08-.84.02-1.65.03-2.43.03v6.96c0,2.67.26,4.35.78,5.04.52.69,1.55,1.03,3.09,1.03h.73v2.35c-1.43-.09-2.86-.15-4.29-.2-1.43-.04-2.89-.07-4.39-.07-.49,0-1.21.01-2.16.04-.95.03-2.78.1-5.48.22v-2.3ZM663.8,419.13c.92.05,1.71.09,2.35.12.64.03,1.19.04,1.62.04.54,0,1.12-.01,1.73-.04s1.25-.07,1.91-.12c1.52-.98,2.63-2.09,3.33-3.34.71-1.25,1.06-2.71,1.06-4.38,0-2.18-.74-3.95-2.21-5.3-1.47-1.35-3.43-2.03-5.87-2.03-.75,0-1.43.03-2.05.08-.62.05-1.23.13-1.82.24-.02,1.9-.03,3.89-.04,5.96,0,2.08-.01,5-.01,8.76Z"/>
    <path d="M711.2,400.62v2.35c-.1,0-.25,0-.44-.03-.19-.02-.33-.03-.42-.03-1.48,0-2.48.43-3.01,1.29-.52.86-.78,3.06-.78,6.58v5.99c0,3.52.06,6.02.18,7.49.12,1.47.33,2.64.63,3.49.66,2.08,1.83,3.67,3.5,4.77,1.67,1.11,3.73,1.66,6.17,1.66,2.01,0,3.71-.34,5.13-1.01,1.41-.67,2.56-1.7,3.45-3.07.59-.92,1.02-2.13,1.27-3.62.25-1.49.38-3.71.38-6.66,0-.56,0-1.49-.03-2.79s-.03-2.32-.03-3.05v-2.75c0-3.68-.26-5.99-.78-6.93s-1.53-1.41-3.01-1.41c-.23,0-.4,0-.52.01-.12,0-.24.01-.34.01v-2.33c1.62.09,2.97.15,4.04.2,1.07.04,1.99.07,2.76.07.71,0,1.58-.02,2.6-.07,1.02-.04,2.35-.11,3.99-.2v2.35h-.42c-1.05,0-1.82.12-2.33.35-.51.24-.87.65-1.1,1.24-.33.87-.54,4.66-.63,11.38,0,.96,0,1.7-.03,2.22v1.44c-.03,5.96-.68,10.06-1.94,12.29s-3.1,3.96-5.55,5.18c-2.44,1.22-5.28,1.83-8.53,1.83-2.98,0-5.63-.49-7.94-1.48-2.31-.99-4.13-2.38-5.45-4.2-.99-1.36-1.7-2.93-2.12-4.71-.42-1.78-.63-4.43-.63-7.95,0-.94.03-2.62.08-5.02.05-2.41.08-4.33.08-5.78,0-3.05-.25-4.95-.75-5.69-.5-.74-1.48-1.11-2.94-1.11h-.63v-2.35c1.97.09,3.57.15,4.8.2,1.23.04,2.29.07,3.18.07.82,0,1.85-.02,3.09-.07,1.24-.04,2.9-.11,5-.2Z"/>
    <path d="M776.03,401.9c0,.17,0,.45-.03.82-.02.38-.03.65-.03.82,0,1.17.05,2.41.16,3.71.1,1.31.27,2.75.5,4.32l-2.59.44c-.28-2.6-1.39-4.62-3.32-6.06s-4.49-2.16-7.66-2.16c-4.05,0-7.18,1.26-9.4,3.78-2.22,2.52-3.34,6.08-3.34,10.68,0,4.97,1.26,8.93,3.78,11.88,2.52,2.95,5.89,4.42,10.11,4.42,2.65,0,4.91-.6,6.79-1.8,1.87-1.2,3.4-3.03,4.56-5.49l2.3,1.07c-.7,1.38-1.31,2.72-1.83,4.04-.52,1.32-.97,2.62-1.33,3.91-2.11.85-4.17,1.5-6.19,1.95-2.01.45-3.95.67-5.82.67-6.07,0-10.99-1.8-14.75-5.39-3.77-3.59-5.65-8.28-5.65-14.07s1.98-10.43,5.92-14.14,8.96-5.56,15.03-5.56c2.18,0,4.32.17,6.42.52,2.1.35,4.22.89,6.37,1.62Z"/>
    <path d="M791.29,435.59h.97c1.17,0,2.02-.13,2.56-.38.54-.25.94-.7,1.2-1.35.17-.49.3-1.67.37-3.56s.1-5.37.1-10.46v-14.96h-4.5c-2.74,0-4.61.38-5.62,1.15-1.01.77-1.71,2.24-2.09,4.42l-2.46-.52c.4-1.73.71-3.38.93-4.96.22-1.58.35-3.13.41-4.67.66.23,1.6.39,2.8.48,1.2.1,3.23.14,6.09.14h15.69c3.21,0,5.44-.05,6.71-.14,1.26-.1,2.19-.27,2.79-.51v.81c0,1.36.06,2.77.17,4.22.11,1.46.28,2.99.51,4.62l-2.35.37c-.3-2.13-.9-3.56-1.8-4.3-.91-.74-2.69-1.11-5.36-1.11h-4.6c-.05,2.79-.09,5.54-.1,8.24-.02,2.7-.03,5.85-.03,9.44v4.89c0,2.3.05,3.92.16,4.84.1.92.27,1.61.5,2.07.26.44.67.75,1.23.94.56.19,1.34.29,2.35.29h.92v2.35c-.44-.02-1.08-.04-1.94-.08-3.42-.16-5.75-.24-7.01-.24-.91,0-2.07.03-3.49.08-1.42.05-3.12.13-5.09.24v-2.35Z"/>
    <path d="M823.39,400.62c1.71.1,3.27.18,4.7.24,1.42.05,2.69.08,3.81.08s2.33-.03,3.7-.08c1.37-.05,2.89-.13,4.56-.24v2.35h-.55c-1.2,0-2.06.12-2.58.37-.52.24-.89.69-1.11,1.33-.19.54-.33,1.6-.42,3.19-.09,1.59-.13,4.44-.13,8.55v10.75c0,2.46.05,4.16.14,5.11.1.95.27,1.64.51,2.08.24.44.65.75,1.23.94.58.19,1.43.29,2.56.29h.65v2.35c-1.92-.1-3.6-.18-5.05-.24s-2.68-.08-3.69-.08c-.92,0-2.12.03-3.58.08s-3.17.13-5.1.24v-2.35h.65c1.17,0,2.04-.1,2.62-.29.58-.19.97-.5,1.18-.94.26-.49.45-1.29.55-2.39.1-1.11.16-3.12.16-6.03v-15.3c0-2.16-.05-3.68-.14-4.54-.1-.86-.27-1.5-.51-1.92-.23-.42-.62-.72-1.19-.92-.57-.19-1.38-.29-2.44-.29h-.52v-2.35Z"/>
    <path d="M867.19,399.65c2.77,0,5.25.38,7.43,1.14,2.18.76,4.19,1.93,6.02,3.52,2.13,1.85,3.77,4.05,4.92,6.6,1.15,2.55,1.73,5.26,1.73,8.12,0,5.69-1.93,10.42-5.78,14.2-3.85,3.78-8.68,5.68-14.46,5.68-3.02,0-5.75-.49-8.19-1.48-2.44-.99-4.6-2.45-6.49-4.41-1.74-1.83-3.07-3.92-3.99-6.26-.92-2.34-1.37-4.83-1.37-7.47,0-2.91.57-5.62,1.71-8.12,1.14-2.5,2.8-4.69,4.98-6.55,1.81-1.57,3.91-2.79,6.28-3.66,2.37-.87,4.78-1.31,7.22-1.31ZM879.2,419.95c0-4.94-1.14-8.9-3.43-11.9-2.28-3-5.28-4.5-9-4.5s-6.4,1.33-8.51,4c-2.12,2.67-3.18,6.28-3.18,10.83,0,4.97,1.16,8.96,3.47,11.98,2.31,3.02,5.31,4.52,9.01,4.52s6.41-1.33,8.5-4c2.09-2.67,3.14-6.31,3.14-10.93Z"/>
    <path d="M893.49,400.67c.66.02,1.7.07,3.13.14,1.42.08,2.44.12,3.05.12.54,0,1.49-.04,2.84-.12,1.35-.08,2.35-.13,3-.14.24.65.6,1.33,1.07,2.05s1.09,1.54,1.86,2.45l19.23,22.68c-.02-2.27-.04-5.29-.08-9.08-.07-8.32-.2-12.86-.39-13.63-.24-.84-.63-1.41-1.15-1.71-.52-.3-1.39-.46-2.59-.46h-.86v-2.3c1.9.09,3.35.15,4.34.2.99.04,1.81.07,2.46.07.77,0,1.69-.02,2.77-.07,1.08-.04,2.44-.11,4.08-.2v2.3h-.47c-1.12,0-1.94.13-2.46.38-.52.25-.9.69-1.13,1.32-.28.84-.48,4.77-.6,11.8v.42l-.1,5.68c-.03,2.18-.06,4.22-.08,6.13-.02,1.91-.03,3.51-.03,4.8,0,.85.03,1.68.09,2.49.06.8.15,1.58.27,2.33h-5.13c-.21-.44-.51-.93-.92-1.49-.4-.56-1.17-1.51-2.3-2.85l-21.11-24.69c0,8.25.04,14.16.13,17.75.09,3.58.22,5.7.39,6.34.24.84.63,1.42,1.16,1.74.53.32,1.4.48,2.6.48h.81v2.35c-1.99-.1-3.49-.17-4.51-.21s-1.86-.05-2.52-.05c-.56,0-1.32.02-2.29.05s-2.51.1-4.62.21v-2.35c.14.02.28.03.43.04s.36.01.64.01c2.49,0,3.77-3.43,3.82-10.28.02-1.52.03-2.69.03-3.53l.08-5.57c0-1.13.02-2.76.05-4.88.03-2.12.05-3.47.05-4.07,0-1.69-.3-2.85-.89-3.47-.59-.62-1.66-.93-3.19-.93-.1,0-.27,0-.48.03-.22.02-.38.03-.48.03v-2.3Z"/>
  </g>
</svg>