<svg width="706" height="275" viewBox="0 0 706 275" fill="none" xmlns="http://www.w3.org/2000/svg">
<path d="M287.62 6.59003V9.63002C293.08 15.7 296.73 24.81 296.73 46.97V167.48C296.73 178.71 292.48 182.66 280.03 182.66H275.95C268.33 182.66 262.15 176.48 262.15 168.86V164.57C262.15 142.41 266.1 133.3 271.56 127.23V124.19H207.51V127.23C212.97 133.3 216.62 142.41 216.62 164.57V186.5C216.62 203.77 230.06 217.9 247.05 219.01C247.12 219.01 247.2 219.02 247.27 219.03C247.43 219.03 247.58 219.05 247.74 219.05C247.91 219.05 248.09 219.08 248.26 219.08H248.74C248.88 219.08 249.02 219.09 249.17 219.09H262.15V219.08H302.18C330.71 219.08 342.25 207.24 342.25 179.01V46.97C342.25 24.81 346.2 15.7 351.66 9.63002V6.59003H287.61H287.62Z" fill="black"/>
<path d="M377.93 216.04C382.48 209.97 385.22 200.86 381.57 178.7L359.71 46.96C356.07 24.8 351.21 15.69 344.84 9.62003V6.58002H408.58V9.62003C404.03 15.69 401.9 24.8 404.94 46.96L420.42 162.01L436.81 46.96C439.85 24.8 438.63 15.69 434.08 9.62003V6.58002H499.65V9.62003C495.1 15.69 493.88 24.8 496.92 46.96L513.01 162.01L528.79 46.96C531.83 24.8 529.7 15.69 525.15 9.62003V6.58002H584.65V9.62003C578.28 15.69 573.42 24.8 569.78 46.96L547.92 178.7C544.28 200.86 547.01 209.97 551.56 216.04V219.08H476.58V216.04C481.13 209.97 482.35 200.86 478.71 178.7L465.35 96.44L452.3 178.7C448.66 200.86 449.87 209.97 454.42 216.04V219.08H377.93V216.04Z" fill="black"/>
<path d="M625.92 6.59003H699.08V64.57H696.04C686.02 50 670.24 43.02 653.24 43.02H649.6C636.55 43.02 631.39 47.88 631.39 61.23V164.44C631.39 177.8 636.55 182.65 649.6 182.65H653.24C670.24 182.65 686.02 175.67 696.04 161.1H699.08V219.08H625.92C597.39 219.08 585.85 207.24 585.85 179.01V46.66C585.85 18.43 597.38 6.59003 625.92 6.59003Z" fill="black"/>
<path d="M176.45 8.89L136.1 0L96.4401 7.51999V21.63L115.83 26.28C116.98 40.44 121.74 100.02 121.74 111.45C121.74 124.44 128.58 177.78 127.9 191.46C127.22 205.14 128.58 232.49 130.63 239.33C132.68 246.17 132.68 272.84 136.78 272.84C137.46 272.84 138.4 272.91 138.83 272.84C142.28 272.28 143.62 232.49 144.3 225.66C144.98 218.82 143.62 175.74 145.67 168.9C147.72 162.06 153.19 109.41 151.83 93.68C150.53 78.8 157.19 35.81 157.91 26L176.45 21.63V8.87999V8.89Z" fill="black"/>
<path d="M140.28 8.04999C154.84 8.35999 147.28 11.45 152.31 13.16C162.37 16.59 172.73 19.42 160.66 17.8C142.56 15.38 135.43 7.94 140.28 8.04V8.04999ZM146.3 112.84C146.48 104.35 143.75 138.25 143.51 149.57C143.27 160.88 145.07 138.28 146.57 131.24C148.06 124.2 146.24 115.67 146.3 112.84ZM121.17 39.72C120.22 31.29 122.02 65.25 123.28 76.49C124.54 87.74 123.33 65.1 123.88 57.92C124.43 50.74 121.49 42.53 121.17 39.72Z" fill="white"/>
<path d="M272.85 77.97C272.29 75.52 232.5 74.57 225.67 74.09C218.84 73.61 175.75 74.58 168.91 73.12C162.07 71.66 109.42 67.78 93.69 68.75C78.81 69.67 35.82 64.95 26.01 64.44L21.64 51.29H8.89L0 79.91L7.52 108.05H21.63L26.28 94.29C40.44 93.48 100.02 90.1 111.45 90.1C124.44 90.1 177.78 85.25 191.46 85.73C205.14 86.22 232.49 85.25 239.33 83.79C246.17 82.33 272.84 82.33 272.84 79.42C272.84 78.93 272.91 78.27 272.84 77.96L272.85 77.97Z" fill="black"/>
<path d="M8.06008 76.94C8.37008 66.61 11.4601 71.98 13.1701 68.41C16.6001 61.27 19.4301 53.92 17.8101 62.49C15.3901 75.33 7.95007 80.39 8.05007 76.94H8.06008Z" fill="white"/>
<path d="M112.84 72.67C104.35 72.54 138.25 74.48 149.57 74.65C160.88 74.82 138.28 73.54 131.24 72.48C124.2 71.42 115.67 72.71 112.84 72.67Z" fill="white"/>
<path d="M39.73 90.5C31.3 91.17 65.26 89.9 76.5 89C87.75 88.1 65.11 88.96 57.93 88.58C50.75 88.19 42.54 90.28 39.73 90.5Z" fill="white"/>
<path d="M243.35 237.55C243.35 237.72 243.35 238 243.32 238.37C243.3 238.75 243.29 239.02 243.29 239.19C243.29 240.36 243.34 241.6 243.45 242.9C243.55 244.21 243.72 245.65 243.95 247.22L241.36 247.66C241.08 245.06 239.97 243.04 238.04 241.6C236.1 240.16 233.55 239.44 230.38 239.44C226.33 239.44 223.2 240.7 220.98 243.22C218.76 245.74 217.64 249.3 217.64 253.9C217.64 258.87 218.9 262.83 221.42 265.78C223.94 268.73 227.31 270.2 231.53 270.2C234.18 270.2 236.44 269.6 238.32 268.4C240.19 267.2 241.72 265.37 242.88 262.91L245.18 263.98C244.48 265.36 243.87 266.7 243.35 268.02C242.83 269.34 242.38 270.64 242.02 271.93C239.91 272.78 237.85 273.43 235.83 273.88C233.82 274.33 231.88 274.55 230.01 274.55C223.94 274.55 219.02 272.75 215.26 269.16C211.49 265.57 209.61 260.88 209.61 255.09C209.61 249.3 211.58 244.66 215.53 240.95C219.48 237.24 224.49 235.39 230.56 235.39C232.74 235.39 234.88 235.56 236.98 235.91C239.08 236.26 241.2 236.8 243.35 237.53V237.55Z" fill="black"/>
<path d="M271.74 235.3C274.51 235.3 276.99 235.68 279.17 236.44C281.35 237.2 283.36 238.37 285.19 239.96C287.32 241.81 288.96 244.01 290.11 246.56C291.26 249.11 291.84 251.82 291.84 254.68C291.84 260.37 289.91 265.1 286.06 268.88C282.21 272.66 277.38 274.56 271.59 274.56C268.57 274.56 265.84 274.07 263.4 273.08C260.96 272.09 258.8 270.63 256.91 268.67C255.17 266.84 253.84 264.75 252.92 262.41C252 260.07 251.55 257.58 251.55 254.94C251.55 252.03 252.12 249.32 253.26 246.82C254.4 244.32 256.06 242.13 258.24 240.27C260.05 238.7 262.15 237.48 264.52 236.61C266.89 235.74 269.3 235.3 271.74 235.3ZM283.75 255.6C283.75 250.66 282.61 246.7 280.32 243.7C278.04 240.7 275.04 239.2 271.32 239.2C267.6 239.2 264.92 240.53 262.81 243.2C260.69 245.87 259.63 249.48 259.63 254.03C259.63 259 260.79 262.99 263.1 266.01C265.41 269.03 268.41 270.53 272.11 270.53C275.81 270.53 278.52 269.2 280.61 266.53C282.7 263.86 283.75 260.22 283.75 255.6Z" fill="black"/>
<path d="M298.04 236.32C298.7 236.34 299.74 236.39 301.17 236.46C302.59 236.54 303.61 236.58 304.22 236.58C304.76 236.58 305.71 236.54 307.06 236.46C308.41 236.38 309.41 236.33 310.05 236.32C310.29 236.97 310.65 237.65 311.12 238.37C311.59 239.09 312.21 239.91 312.98 240.82L332.21 263.5C332.19 261.23 332.17 258.21 332.13 254.42C332.06 246.1 331.93 241.56 331.74 240.79C331.5 239.95 331.11 239.38 330.59 239.08C330.07 238.78 329.2 238.62 328 238.62H327.14V236.32C329.04 236.41 330.49 236.47 331.48 236.52C332.47 236.56 333.29 236.59 333.94 236.59C334.71 236.59 335.63 236.57 336.71 236.52C337.79 236.48 339.15 236.41 340.79 236.32V238.62H340.32C339.2 238.62 338.38 238.75 337.86 239C337.34 239.25 336.96 239.69 336.73 240.32C336.45 241.16 336.25 245.09 336.13 252.12V252.54L336.03 258.22C335.99 260.4 335.97 262.44 335.95 264.35C335.93 266.26 335.92 267.86 335.92 269.15C335.92 270 335.95 270.83 336.01 271.64C336.07 272.44 336.16 273.22 336.28 273.97H331.15C330.94 273.53 330.64 273.04 330.23 272.48C329.83 271.92 329.06 270.97 327.93 269.63L306.82 244.94C306.82 253.19 306.86 259.1 306.95 262.69C307.04 266.27 307.17 268.39 307.34 269.03C307.58 269.87 307.97 270.45 308.5 270.77C309.03 271.09 309.9 271.25 311.1 271.25H311.91V273.6C309.92 273.5 308.42 273.43 307.4 273.39C306.38 273.35 305.54 273.34 304.88 273.34C304.32 273.34 303.56 273.36 302.59 273.39C301.62 273.42 300.08 273.49 297.97 273.6V271.25C298.11 271.27 298.25 271.28 298.4 271.29C298.55 271.3 298.76 271.3 299.04 271.3C301.53 271.3 302.81 267.87 302.86 261.02C302.88 259.5 302.89 258.33 302.89 257.49L302.97 251.92C302.97 250.79 302.99 249.16 303.02 247.04C303.05 244.92 303.07 243.57 303.07 242.97C303.07 241.28 302.77 240.12 302.18 239.5C301.59 238.88 300.52 238.57 298.99 238.57C298.89 238.57 298.72 238.57 298.51 238.6C298.29 238.62 298.13 238.63 298.03 238.63V236.33L298.04 236.32Z" fill="black"/>
<path d="M372.18 237.39V237.97C372.18 239.24 372.25 240.55 372.4 241.88C372.55 243.21 372.77 244.59 373.07 246L370.35 246.45C370.05 244.18 369.21 242.47 367.83 241.32C366.44 240.17 364.54 239.59 362.11 239.59C359.86 239.59 358.1 240.03 356.83 240.92C355.56 241.81 354.92 243.04 354.92 244.61C354.92 245.66 355.18 246.56 355.7 247.32C356.22 248.08 357.03 248.75 358.13 249.32C358.98 249.77 360.46 250.35 362.56 251.05C364.66 251.75 366.22 252.3 367.23 252.7C369.51 253.64 371.23 254.87 372.37 256.39C373.51 257.91 374.08 259.71 374.08 261.8C374.08 265.6 372.62 268.64 369.71 270.9C366.8 273.17 362.85 274.3 357.86 274.3C356.22 274.3 354.56 274.14 352.89 273.82C351.22 273.5 349.59 273.03 348 272.42C348 272.23 348 271.97 348.03 271.65C348.05 271.33 348.06 271.09 348.06 270.93C348.06 269.59 347.98 268.22 347.81 266.82C347.64 265.42 347.39 263.99 347.04 262.5L349.89 261.79C350.55 265 351.62 267.24 353.09 268.51C354.56 269.78 356.76 270.42 359.67 270.42C362.02 270.42 363.88 269.9 365.24 268.85C366.6 267.8 367.28 266.4 367.28 264.64C367.28 262.13 364.88 260.03 360.09 258.34C359.03 257.97 358.22 257.69 357.66 257.48C354.35 256.24 351.97 254.8 350.53 253.16C349.09 251.52 348.37 249.47 348.37 247.01C348.37 243.63 349.68 240.9 352.29 238.82C354.91 236.74 358.37 235.71 362.67 235.71C364.17 235.71 365.69 235.85 367.23 236.12C368.77 236.39 370.42 236.81 372.16 237.39H372.18Z" fill="black"/>
<path d="M388.98 271.24H389.95C391.12 271.24 391.97 271.11 392.51 270.86C393.05 270.61 393.45 270.16 393.71 269.51C393.88 269.02 394.01 267.84 394.08 265.95C394.15 264.06 394.18 260.58 394.18 255.49V240.53H389.68C386.94 240.53 385.07 240.91 384.06 241.68C383.05 242.45 382.35 243.92 381.97 246.1L379.51 245.58C379.91 243.85 380.22 242.2 380.44 240.62C380.66 239.04 380.79 237.49 380.85 235.95C381.51 236.18 382.45 236.34 383.65 236.43C384.85 236.53 386.88 236.57 389.74 236.57H405.43C408.64 236.57 410.87 236.52 412.14 236.43C413.4 236.33 414.33 236.16 414.93 235.92V236.73C414.93 238.09 414.99 239.5 415.1 240.95C415.21 242.41 415.38 243.94 415.61 245.57L413.25 245.94C412.95 243.81 412.35 242.38 411.45 241.64C410.54 240.9 408.76 240.53 406.09 240.53H401.49C401.44 243.32 401.4 246.07 401.39 248.77C401.37 251.47 401.36 254.62 401.36 258.21V263.1C401.36 265.4 401.41 267.02 401.52 267.94C401.62 268.86 401.79 269.55 402.02 270.01C402.28 270.45 402.69 270.76 403.25 270.95C403.81 271.14 404.59 271.24 405.61 271.24H406.52V273.59C406.08 273.57 405.44 273.55 404.58 273.51C401.16 273.35 398.83 273.27 397.57 273.27C396.66 273.27 395.5 273.3 394.08 273.35C392.66 273.4 390.96 273.48 388.99 273.59V271.24H388.98Z" fill="black"/>
<path d="M421.04 271.29C421.18 271.31 421.31 271.32 421.45 271.33C421.58 271.33 421.79 271.34 422.06 271.34C423.49 271.34 424.45 270.87 424.95 269.93C425.45 268.99 425.7 266.5 425.7 262.45V257.74L425.8 251.88C425.82 250.64 425.83 249.41 425.84 248.19C425.85 246.97 425.85 245.5 425.85 243.8C425.85 241.6 425.58 240.18 425.05 239.54C424.52 238.9 423.52 238.57 422.05 238.57H421.5V236.27C423.37 236.36 424.91 236.42 426.13 236.47C427.35 236.51 428.41 236.54 429.32 236.54C430.61 236.54 432.21 236.5 434.13 236.41C436.05 236.32 437.34 236.28 438 236.28C442.32 236.28 445.73 237.18 448.23 238.97C450.72 240.77 451.97 243.21 451.97 246.29C451.97 248.35 451.35 250.16 450.1 251.73C448.85 253.3 446.98 254.64 444.49 255.76L449.62 262.98C452.06 266.78 453.84 269.17 454.97 270.15C456.1 271.13 457.29 271.61 458.57 271.61C458.64 271.61 458.74 271.61 458.87 271.58C459 271.56 459.1 271.55 459.17 271.55V273.75C458.11 273.84 457.18 273.9 456.4 273.95C455.62 274 454.93 274.02 454.33 274.02C452.2 274.02 450.54 273.78 449.33 273.31C448.13 272.84 447.04 272.03 446.09 270.88C445.64 270.34 444.52 268.6 442.74 265.66C440.96 262.72 439.4 260.21 438.06 258.11C436.98 258.14 436.02 258.17 435.18 258.19C434.34 258.21 433.53 258.22 432.75 258.22V265.18C432.75 267.85 433.01 269.53 433.53 270.22C434.05 270.91 435.08 271.25 436.62 271.25H437.35V273.6C435.92 273.51 434.49 273.45 433.06 273.4C431.63 273.36 430.17 273.33 428.67 273.33C428.18 273.33 427.46 273.34 426.51 273.37C425.56 273.4 423.73 273.47 421.03 273.59V271.29H421.04ZM432.76 254.78C433.68 254.83 434.47 254.87 435.11 254.9C435.75 254.93 436.3 254.94 436.73 254.94C437.27 254.94 437.85 254.93 438.46 254.9C439.07 254.87 439.71 254.83 440.37 254.78C441.89 253.8 443 252.69 443.7 251.44C444.41 250.19 444.76 248.73 444.76 247.06C444.76 244.88 444.02 243.11 442.55 241.76C441.08 240.41 439.12 239.73 436.68 239.73C435.93 239.73 435.25 239.76 434.63 239.81C434.01 239.86 433.4 239.94 432.81 240.05C432.79 241.95 432.78 243.94 432.77 246.01C432.77 248.09 432.76 251.01 432.76 254.77V254.78Z" fill="black"/>
<path d="M480.16 236.27V238.62C480.06 238.62 479.91 238.62 479.72 238.59C479.53 238.57 479.39 238.56 479.3 238.56C477.82 238.56 476.82 238.99 476.29 239.85C475.77 240.71 475.51 242.91 475.51 246.43V252.42C475.51 255.94 475.57 258.44 475.69 259.91C475.81 261.38 476.02 262.55 476.32 263.4C476.98 265.48 478.15 267.07 479.82 268.17C481.49 269.28 483.55 269.83 485.99 269.83C488 269.83 489.7 269.49 491.12 268.82C492.53 268.15 493.68 267.12 494.57 265.75C495.16 264.83 495.59 263.62 495.84 262.13C496.09 260.64 496.22 258.42 496.22 255.47C496.22 254.91 496.22 253.98 496.19 252.68C496.16 251.38 496.16 250.36 496.16 249.63V246.88C496.16 243.2 495.9 240.89 495.38 239.95C494.86 239.01 493.85 238.54 492.37 238.54C492.14 238.54 491.97 238.54 491.85 238.55C491.73 238.55 491.61 238.56 491.51 238.56V236.23C493.13 236.32 494.48 236.38 495.55 236.43C496.62 236.47 497.54 236.5 498.31 236.5C499.02 236.5 499.89 236.48 500.91 236.43C501.93 236.39 503.26 236.32 504.9 236.23V238.58H504.48C503.43 238.58 502.66 238.7 502.15 238.93C501.64 239.17 501.28 239.58 501.05 240.17C500.72 241.04 500.51 244.83 500.42 251.55C500.42 252.51 500.42 253.25 500.39 253.77V255.21C500.36 261.17 499.71 265.27 498.45 267.5C497.19 269.73 495.35 271.46 492.9 272.68C490.46 273.9 487.62 274.51 484.37 274.51C481.39 274.51 478.74 274.02 476.43 273.03C474.12 272.04 472.3 270.65 470.98 268.83C469.99 267.47 469.28 265.9 468.86 264.12C468.44 262.34 468.23 259.69 468.23 256.17C468.23 255.23 468.26 253.55 468.31 251.15C468.36 248.74 468.39 246.82 468.39 245.37C468.39 242.32 468.14 240.42 467.64 239.68C467.14 238.94 466.16 238.57 464.7 238.57H464.07V236.22C466.04 236.31 467.64 236.37 468.87 236.42C470.1 236.46 471.16 236.49 472.05 236.49C472.87 236.49 473.9 236.47 475.14 236.42C476.38 236.38 478.04 236.31 480.14 236.22L480.16 236.27Z" fill="black"/>
<path d="M544.99 237.55C544.99 237.72 544.99 238 544.96 238.37C544.94 238.75 544.93 239.02 544.93 239.19C544.93 240.36 544.98 241.6 545.09 242.9C545.19 244.21 545.36 245.65 545.59 247.22L543 247.66C542.72 245.06 541.61 243.04 539.68 241.6C537.75 240.16 535.19 239.44 532.02 239.44C527.97 239.44 524.84 240.7 522.62 243.22C520.4 245.74 519.28 249.3 519.28 253.9C519.28 258.87 520.54 262.83 523.06 265.78C525.58 268.73 528.95 270.2 533.17 270.2C535.82 270.2 538.08 269.6 539.96 268.4C541.83 267.2 543.36 265.37 544.52 262.91L546.82 263.98C546.12 265.36 545.51 266.7 544.99 268.02C544.47 269.34 544.02 270.64 543.66 271.93C541.55 272.78 539.49 273.43 537.47 273.88C535.46 274.33 533.52 274.55 531.65 274.55C525.58 274.55 520.66 272.75 516.9 269.16C513.13 265.57 511.25 260.88 511.25 255.09C511.25 249.3 513.23 244.66 517.17 240.95C521.11 237.24 526.13 235.39 532.2 235.39C534.38 235.39 536.52 235.56 538.62 235.91C540.72 236.26 542.84 236.8 544.99 237.53V237.55Z" fill="black"/>
<path d="M560.25 271.24H561.22C562.39 271.24 563.24 271.11 563.78 270.86C564.32 270.61 564.72 270.16 564.98 269.51C565.15 269.02 565.28 267.84 565.35 265.95C565.42 264.06 565.45 260.58 565.45 255.49V240.53H560.95C558.21 240.53 556.34 240.91 555.33 241.68C554.32 242.45 553.62 243.92 553.24 246.1L550.78 245.58C551.18 243.85 551.49 242.2 551.71 240.62C551.93 239.04 552.06 237.49 552.12 235.95C552.78 236.18 553.72 236.34 554.92 236.43C556.12 236.53 558.15 236.57 561.01 236.57H576.7C579.91 236.57 582.14 236.52 583.41 236.43C584.67 236.33 585.6 236.16 586.2 235.92V236.73C586.2 238.09 586.26 239.5 586.37 240.95C586.48 242.41 586.65 243.94 586.88 245.57L584.53 245.94C584.23 243.81 583.63 242.38 582.73 241.64C581.82 240.9 580.04 240.53 577.37 240.53H572.77C572.72 243.32 572.68 246.07 572.67 248.77C572.65 251.47 572.64 254.62 572.64 258.21V263.1C572.64 265.4 572.69 267.02 572.8 267.94C572.9 268.86 573.07 269.55 573.3 270.01C573.56 270.45 573.97 270.76 574.53 270.95C575.09 271.14 575.87 271.24 576.88 271.24H577.8V273.59C577.36 273.57 576.72 273.55 575.86 273.51C572.44 273.35 570.11 273.27 568.85 273.27C567.94 273.27 566.78 273.3 565.36 273.35C563.94 273.4 562.24 273.48 560.27 273.59V271.24H560.25Z" fill="black"/>
<path d="M592.35 236.27C594.06 236.37 595.62 236.45 597.05 236.51C598.47 236.56 599.74 236.59 600.86 236.59C601.98 236.59 603.19 236.56 604.56 236.51C605.93 236.46 607.45 236.38 609.12 236.27V238.62H608.57C607.37 238.62 606.51 238.74 605.99 238.99C605.47 239.23 605.1 239.68 604.88 240.32C604.69 240.86 604.55 241.92 604.46 243.51C604.37 245.1 604.33 247.95 604.33 252.06V262.81C604.33 265.27 604.38 266.97 604.47 267.92C604.57 268.87 604.74 269.56 604.98 270C605.22 270.44 605.63 270.75 606.21 270.94C606.79 271.13 607.64 271.23 608.77 271.23H609.42V273.58C607.5 273.48 605.82 273.4 604.37 273.34C602.92 273.28 601.69 273.26 600.68 273.26C599.76 273.26 598.56 273.29 597.1 273.34C595.64 273.39 593.93 273.47 592 273.58V271.23H592.65C593.82 271.23 594.69 271.13 595.27 270.94C595.85 270.75 596.24 270.44 596.45 270C596.71 269.51 596.9 268.71 597 267.61C597.1 266.5 597.16 264.49 597.16 261.58V246.28C597.16 244.12 597.11 242.6 597.02 241.74C596.92 240.88 596.75 240.24 596.51 239.82C596.28 239.4 595.89 239.1 595.32 238.9C594.75 238.71 593.94 238.61 592.88 238.61H592.36V236.26L592.35 236.27Z" fill="black"/>
<path d="M636.15 235.3C638.92 235.3 641.4 235.68 643.58 236.44C645.76 237.2 647.77 238.37 649.6 239.96C651.73 241.81 653.37 244.01 654.52 246.56C655.67 249.11 656.25 251.82 656.25 254.68C656.25 260.37 654.32 265.1 650.47 268.88C646.62 272.66 641.79 274.56 636.01 274.56C632.99 274.56 630.26 274.07 627.82 273.08C625.38 272.09 623.22 270.63 621.33 268.67C619.59 266.84 618.26 264.75 617.34 262.41C616.42 260.07 615.97 257.58 615.97 254.94C615.97 252.03 616.54 249.32 617.68 246.82C618.82 244.32 620.48 242.13 622.66 240.27C624.47 238.7 626.57 237.48 628.94 236.61C631.31 235.74 633.72 235.3 636.16 235.3H636.15ZM648.16 255.6C648.16 250.66 647.02 246.7 644.73 243.7C642.45 240.7 639.45 239.2 635.73 239.2C632.01 239.2 629.33 240.53 627.22 243.2C625.1 245.87 624.04 249.48 624.04 254.03C624.04 259 625.2 262.99 627.51 266.01C629.82 269.03 632.82 270.53 636.52 270.53C640.22 270.53 642.93 269.2 645.02 266.53C647.11 263.86 648.16 260.22 648.16 255.6Z" fill="black"/>
<path d="M662.45 236.32C663.11 236.34 664.15 236.39 665.58 236.46C667 236.54 668.02 236.58 668.63 236.58C669.17 236.58 670.12 236.54 671.47 236.46C672.82 236.38 673.82 236.33 674.47 236.32C674.71 236.97 675.07 237.65 675.54 238.37C676.01 239.09 676.63 239.91 677.4 240.82L696.63 263.5C696.61 261.23 696.59 258.21 696.55 254.42C696.48 246.1 696.35 241.56 696.16 240.79C695.92 239.95 695.53 239.38 695.01 239.08C694.49 238.78 693.62 238.62 692.42 238.62H691.56V236.32C693.46 236.41 694.91 236.47 695.9 236.52C696.89 236.56 697.71 236.59 698.36 236.59C699.13 236.59 700.05 236.57 701.13 236.52C702.21 236.48 703.57 236.41 705.21 236.32V238.62H704.74C703.62 238.62 702.8 238.75 702.28 239C701.76 239.25 701.38 239.69 701.15 240.32C700.87 241.16 700.67 245.09 700.55 252.12V252.54L700.45 258.22C700.42 260.4 700.39 262.44 700.37 264.35C700.35 266.26 700.34 267.86 700.34 269.15C700.34 270 700.37 270.83 700.43 271.64C700.49 272.44 700.58 273.22 700.7 273.97H695.57C695.36 273.53 695.06 273.04 694.65 272.48C694.25 271.92 693.48 270.97 692.35 269.63L671.24 244.94C671.24 253.19 671.28 259.1 671.37 262.69C671.46 266.27 671.59 268.39 671.76 269.03C672 269.87 672.39 270.45 672.92 270.77C673.45 271.09 674.32 271.25 675.52 271.25H676.33V273.6C674.34 273.5 672.84 273.43 671.82 273.39C670.8 273.35 669.96 273.34 669.3 273.34C668.74 273.34 667.98 273.36 667.01 273.39C666.04 273.42 664.5 273.49 662.39 273.6V271.25C662.53 271.27 662.67 271.28 662.82 271.29C662.97 271.3 663.18 271.3 663.46 271.3C665.95 271.3 667.23 267.87 667.28 261.02C667.3 259.5 667.31 258.33 667.31 257.49L667.39 251.92C667.39 250.79 667.41 249.16 667.44 247.04C667.47 244.92 667.49 243.57 667.49 242.97C667.49 241.28 667.19 240.12 666.6 239.5C666.01 238.88 664.94 238.57 663.41 238.57C663.31 238.57 663.14 238.57 662.93 238.6C662.71 238.62 662.55 238.63 662.45 238.63V236.33V236.32Z" fill="black"/>
</svg>
